<svg id="Layer_3" data-name="Layer 3" xmlns="http://www.w3.org/2000/svg" viewBox="0 0 112 36"><defs><style>.cls-1{fill:#f4f4f4;}</style></defs><title>logo</title><path class="cls-1" d="M0.95,35.6H0q0.2-2.244,2.651-13.189A166.233,166.233,0,0,0,5.7,6.033a4.7,4.7,0,0,0-.525-1.92A9.4,9.4,0,0,0,4.1,2.294L3.6,1.6l0.15-.748Q6.553,0,13.406,0a4.893,4.893,0,0,1,.65,2.343,25.116,25.116,0,0,1-.2,2.842Q20.108,0,24.061,0a5.516,5.516,0,0,1,4.2,1.7,6.63,6.63,0,0,1,1.6,4.737q0,3.042-2.126,11.593T25.611,29.967q0,1.446.5,1.445a9.618,9.618,0,0,0,2.5-1l0.65-.3,1,1.845a21.391,21.391,0,0,1-4.352,2.918A9.284,9.284,0,0,1,21.835,36a3.763,3.763,0,0,1-2.976-1.321,5.276,5.276,0,0,1-1.151-3.591q0-2.268,2.076-11.293T21.86,8.277q0-2.492-1.951-2.493-2.952,0-6.7,2.942-0.551,2.643-2.051,8.826-3.3,13.612-3.3,17.053Q5.9,35.6.95,35.6Z"/><path class="cls-1" d="M47.271,14.759a7.826,7.826,0,0,0,.55-1.3,20.212,20.212,0,0,1,6.3,1.4,69.037,69.037,0,0,0-2,8.651,45.184,45.184,0,0,0-.75,6.432q0,1.92.4,1.92a10.381,10.381,0,0,0,2.2-.947l0.6-.3,0.9,1.746q-0.451.4-1.176,1a16.8,16.8,0,0,1-2.726,1.62A8.077,8.077,0,0,1,47.971,36q-3.1,0-3.6-2.792Q41.168,36,38.592,36a5.6,5.6,0,0,1-4.352-1.995q-1.776-1.993-1.776-6.282,0-6.681,2.751-10.546t6.653-3.864A10.979,10.979,0,0,1,47.271,14.759Zm-5.7,17a5.2,5.2,0,0,0,2.7-.947A60.405,60.405,0,0,1,46.621,16.9a6.681,6.681,0,0,0-2.551-.648q-1.8,0-3.076,3.515a22.591,22.591,0,0,0-1.276,7.753Q39.717,31.763,41.568,31.762Z"/><path class="cls-1" d="M57.726,35.552H56.774A52.936,52.936,0,0,1,58.2,26.576a74.6,74.6,0,0,0,1.425-7.529,5.871,5.871,0,0,0-1.4-3.49l-0.45-.6,0.05-.648a35.72,35.72,0,0,1,8.654-.748,5.3,5.3,0,0,1,.7,3.092q4.5-3.34,7.154-3.341,3.349,0,3.952,3.44a22.87,22.87,0,0,1,3.526-2.268,8.416,8.416,0,0,1,3.9-1.171,3.954,3.954,0,0,1,2.876,1.122,4.154,4.154,0,0,1,1.151,3.117,32.5,32.5,0,0,1-1.1,6.581,33.221,33.221,0,0,0-1.1,6.158q0,1.571.451,1.571a8.79,8.79,0,0,0,2.051-.947l0.55-.3,0.9,1.746a14.588,14.588,0,0,1-3.526,2.467A8.678,8.678,0,0,1,84.038,36q-3.752,0-3.752-4.238a35.274,35.274,0,0,1,1.075-6.208,35.6,35.6,0,0,0,1.075-6.082q0-1.422-.849-1.422a6.666,6.666,0,0,0-3.3,1.1q-0.1,1-1.376,6.782A44.8,44.8,0,0,0,75.633,34.9q-1.452.649-6.8,0.649a19.958,19.958,0,0,1-.1-2.642,36.589,36.589,0,0,1,1.175-7.131A39.58,39.58,0,0,0,71.081,19.4q0-1.346-.95-1.347a6.113,6.113,0,0,0-3.3,1.2q-0.1.448-1,4.387a58.332,58.332,0,0,0-1.8,11.219A19.279,19.279,0,0,1,57.726,35.552Z"/><path class="cls-1" d="M92.891,26.775q0-6.232,3.777-9.847a12.076,12.076,0,0,1,8.578-3.615,7.794,7.794,0,0,1,4.853,1.446,4.614,4.614,0,0,1,1.9,3.864,6.613,6.613,0,0,1-1.225,4.063A8.542,8.542,0,0,1,107.8,25.23a22.725,22.725,0,0,1-6.5,2.194l-1.2.15q0.348,4.687,3.851,4.687a6.314,6.314,0,0,0,2.551-.6,9.7,9.7,0,0,0,2.1-1.2l0.751-.6,1.2,1.6a8.136,8.136,0,0,1-1.6,1.446,22.058,22.058,0,0,1-2.251,1.5A12.973,12.973,0,0,1,100.345,36a6.669,6.669,0,0,1-5.452-2.443A10.406,10.406,0,0,1,92.891,26.775Zm11.2-3.789a6.371,6.371,0,0,0,1.5-4.388q0-2.692-1.6-2.692-1.9,0-2.927,3.216a19.861,19.861,0,0,0-1.025,6.008A6.786,6.786,0,0,0,104.1,22.986Z"/></svg>